# xmcd
# 
# Track frame offsets:
#     150
#     28592
#     62157
#     113327
#     152277
#     163110
#     196417
#     224092
#     260375
#     280340
# 
# Disc length: 4079
# 
# Revision: 4
# Processed by: cddbd v1.5.2PL0 Copyright (c) Steve Scherf et al.
# Submitted via: fre:ac v1.0.17
# 
DISCID=890fed0a
DTITLE=Eva Gardner - Aphrodisiac [CD2)
DYEAR=1999
DGENRE=House-Chillout
TTITLE0=Pepe Deluxe - Woman in Blue [Sonorous Star Mix]
TTITLE1=Azymuth - Laranjeiras [Flytronix Slow Mix]
TTITLE2=A:xus - Callin' U [Original Mix Feat. Naomi]
TTITLE3=Chez Damier - Close [Original Mix]
TTITLE4=The Fire This Time - Reluctant Warrior
TTITLE5=Astrotrax - Losing Control [Jazz Scat]
TTITLE6=Unit 46 - Don't Go
TTITLE7=Nova Nova - Bewildered [Jori Hulkkonen Finnstrumental Dub]
TTITLE8=Children of Planet Earth - Fly Away [Roy's Chi Town Dub]
TTITLE9=ADNY - What If I Love
EXTD=
EXTT0=
EXTT1=
EXTT2=
EXTT3=
EXTT4=
EXTT5=
EXTT6=
EXTT7=
EXTT8=
EXTT9=
PLAYORDER=
